<svg width="16" height="16" viewBox="0 0 16 16" fill="none" xmlns="http://www.w3.org/2000/svg">
<g id="icons/Clock/Line">
<path id="Shape" fill-rule="evenodd" clip-rule="evenodd" d="M8.0026 13.3335C10.9481 13.3335 13.3359 10.9457 13.3359 8.00016C13.3359 5.05464 10.9481 2.66683 8.0026 2.66683C5.05709 2.66683 2.66927 5.05464 2.66927 8.00016C2.66927 10.9457 5.05709 13.3335 8.0026 13.3335ZM8.0026 14.6668C11.6845 14.6668 14.6693 11.6821 14.6693 8.00016C14.6693 4.31826 11.6845 1.3335 8.0026 1.3335C4.32071 1.3335 1.33594 4.31826 1.33594 8.00016C1.33594 11.6821 4.32071 14.6668 8.0026 14.6668Z" fill="#737A91"/>
<path id="Shape_2" fill-rule="evenodd" clip-rule="evenodd" d="M8.0026 4C8.37079 4 8.66927 4.29848 8.66927 4.66667V7.72386L10.1407 9.19526C10.401 9.45561 10.401 9.87772 10.1407 10.1381C9.88033 10.3984 9.45822 10.3984 9.19787 10.1381L7.5312 8.4714C7.40618 8.34638 7.33594 8.17681 7.33594 8V4.66667C7.33594 4.29848 7.63441 4 8.0026 4Z" fill="#737A91"/>
</g>
</svg>
