<svg width="20" height="20" viewBox="0 0 20 20" fill="none" xmlns="http://www.w3.org/2000/svg">
<g id="u:expand-alt">
<path id="Vector" d="M8.15573 10.6582L3.33073 15.4915V14.1665C3.33073 13.9455 3.24293 13.7335 3.08665 13.5772C2.93037 13.421 2.71841 13.3332 2.4974 13.3332C2.27638 13.3332 2.06442 13.421 1.90814 13.5772C1.75186 13.7335 1.66406 13.9455 1.66406 14.1665V17.4998C1.66538 17.6087 1.68803 17.7163 1.73073 17.8165C1.81529 18.0201 1.9771 18.1819 2.18073 18.2665C2.28091 18.3092 2.3885 18.3319 2.4974 18.3332H5.83073C6.05174 18.3332 6.2637 18.2454 6.41998 18.0891C6.57627 17.9328 6.66406 17.7209 6.66406 17.4998C6.66406 17.2788 6.57627 17.0669 6.41998 16.9106C6.2637 16.7543 6.05174 16.6665 5.83073 16.6665H4.50573L9.33906 11.8415C9.49598 11.6846 9.58414 11.4718 9.58414 11.2498C9.58414 11.0279 9.49598 10.8151 9.33906 10.6582C9.18214 10.5013 8.96931 10.4131 8.7474 10.4131C8.52548 10.4131 8.31265 10.5013 8.15573 10.6582ZM18.2641 2.18317C18.1795 1.97955 18.0177 1.81773 17.8141 1.73317C17.7139 1.69047 17.6063 1.66782 17.4974 1.6665H14.1641C13.943 1.6665 13.7311 1.7543 13.5748 1.91058C13.4185 2.06686 13.3307 2.27882 13.3307 2.49984C13.3307 2.72085 13.4185 2.93281 13.5748 3.08909C13.7311 3.24537 13.943 3.33317 14.1641 3.33317H15.4891L10.6557 8.15817C10.5776 8.23564 10.5156 8.32781 10.4733 8.42936C10.431 8.53091 10.4092 8.63983 10.4092 8.74984C10.4092 8.85985 10.431 8.96877 10.4733 9.07032C10.5156 9.17187 10.5776 9.26404 10.6557 9.3415C10.7332 9.41961 10.8254 9.48161 10.9269 9.52391C11.0285 9.56622 11.1374 9.588 11.2474 9.588C11.3574 9.588 11.4663 9.56622 11.5679 9.52391C11.6694 9.48161 11.7616 9.41961 11.8391 9.3415L16.6641 4.50817V5.83317C16.6641 6.05418 16.7519 6.26615 16.9081 6.42243C17.0644 6.57871 17.2764 6.6665 17.4974 6.6665C17.7184 6.6665 17.9304 6.57871 18.0867 6.42243C18.2429 6.26615 18.3307 6.05418 18.3307 5.83317V2.49984C18.3294 2.39094 18.3068 2.28336 18.2641 2.18317Z" fill="#737A91"/>
</g>
</svg>
