<svg width="32" height="32" viewBox="0 0 32 32" fill="none" xmlns="http://www.w3.org/2000/svg">
<g id="Icon/Solid/menu-alt-1">
<g id="Icon">
<path fill-rule="evenodd" clip-rule="evenodd" d="M4.79688 7.9999C4.79688 7.11625 5.51322 6.3999 6.39688 6.3999H25.5969C26.4805 6.3999 27.1969 7.11625 27.1969 7.9999C27.1969 8.88356 26.4805 9.5999 25.5969 9.5999H6.39688C5.51322 9.5999 4.79688 8.88356 4.79688 7.9999Z" fill="#737A91"/>
<path fill-rule="evenodd" clip-rule="evenodd" d="M4.79688 15.9999C4.79688 15.1162 5.51322 14.3999 6.39688 14.3999H15.9969C16.8805 14.3999 17.5969 15.1162 17.5969 15.9999C17.5969 16.8836 16.8805 17.5999 15.9969 17.5999H6.39688C5.51322 17.5999 4.79688 16.8836 4.79688 15.9999Z" fill="#737A91"/>
<path fill-rule="evenodd" clip-rule="evenodd" d="M4.79688 23.9999C4.79688 23.1162 5.51322 22.3999 6.39688 22.3999H25.5969C26.4805 22.3999 27.1969 23.1162 27.1969 23.9999C27.1969 24.8836 26.4805 25.5999 25.5969 25.5999H6.39688C5.51322 25.5999 4.79688 24.8836 4.79688 23.9999Z" fill="#737A91"/>
</g>
</g>
</svg>
